<svg width="80" height="24" viewBox="0 0 80 24" fill="none" xmlns="http://www.w3.org/2000/svg">
<g opacity="0.85">
<path d="M10 12V8.964M14 12V8.964M15 12C15.2652 12 15.5196 12.1054 15.7071 12.2929C15.8946 12.4804 16 12.7348 16 13V15C16 15.5304 15.7893 16.0391 15.4142 16.4142C15.0391 16.7893 14.5304 17 14 17H10C9.46957 17 8.96086 16.7893 8.58579 16.4142C8.21071 16.0391 8 15.5304 8 15V13C8 12.7348 8.10536 12.4804 8.29289 12.2929C8.48043 12.1054 8.73478 12 9 12H15Z" stroke="#FF8E28" stroke-width="1.2" stroke-linecap="round" stroke-linejoin="round"/>
<path d="M8.5 21H5C4.46957 21 3.96086 20.7893 3.58579 20.4142C3.21071 20.0391 3 19.5304 3 19V10C2.99993 9.70907 3.06333 9.42162 3.18579 9.15772C3.30824 8.89381 3.4868 8.6598 3.709 8.472L10.709 2.473C11.07 2.16791 11.5274 2.00052 12 2.00052C12.4726 2.00052 12.93 2.16791 13.291 2.473L20.291 8.472C20.5132 8.6598 20.6918 8.89381 20.8142 9.15772C20.9367 9.42162 21.0001 9.70907 21 10V19C21 19.5304 20.7893 20.0391 20.4142 20.4142C20.0391 20.7893 19.5304 21 19 21H14C13.4696 21 12.9609 20.7893 12.5858 20.4142C12.2107 20.0391 12 19.5304 12 19V17" stroke="#FF8E28" stroke-width="1.2" stroke-linecap="round" stroke-linejoin="round"/>
</g>
<path d="M30.5469 8.57812C32.0208 8.57812 33.0964 8.86719 33.7734 9.44531C34.4557 10.0182 34.7969 10.8411 34.7969 11.9141C34.7969 12.3984 34.7161 12.8594 34.5547 13.2969C34.3984 13.7292 34.1432 14.112 33.7891 14.4453C33.4349 14.7734 32.9688 15.0339 32.3906 15.2266C31.8177 15.4141 31.1146 15.5078 30.2812 15.5078H28.8906V20H27.5625V8.57812H30.5469ZM30.4219 9.71094H28.8906V14.3672H30.1328C30.862 14.3672 31.4688 14.2891 31.9531 14.1328C32.4427 13.9766 32.8099 13.724 33.0547 13.375C33.2995 13.0208 33.4219 12.5521 33.4219 11.9688C33.4219 11.2083 33.1797 10.6432 32.6953 10.2734C32.2109 9.89844 31.4531 9.71094 30.4219 9.71094ZM39.9453 11.2969C40.9661 11.2969 41.724 11.526 42.2188 11.9844C42.7135 12.4427 42.9609 13.1745 42.9609 14.1797V20H42.0156L41.7656 18.7344H41.7031C41.4635 19.0469 41.2135 19.3099 40.9531 19.5234C40.6927 19.7318 40.3906 19.8906 40.0469 20C39.7083 20.1042 39.2917 20.1562 38.7969 20.1562C38.276 20.1562 37.8125 20.0651 37.4062 19.8828C37.0052 19.7005 36.6875 19.4245 36.4531 19.0547C36.224 18.6849 36.1094 18.2161 36.1094 17.6484C36.1094 16.7943 36.4479 16.138 37.125 15.6797C37.8021 15.2214 38.8333 14.9714 40.2188 14.9297L41.6953 14.8672V14.3438C41.6953 13.6042 41.5365 13.0859 41.2188 12.7891C40.901 12.4922 40.4531 12.3438 39.875 12.3438C39.4271 12.3438 39 12.4089 38.5938 12.5391C38.1875 12.6693 37.8021 12.8229 37.4375 13L37.0391 12.0156C37.4245 11.8177 37.8672 11.6484 38.3672 11.5078C38.8672 11.3672 39.3932 11.2969 39.9453 11.2969ZM41.6797 15.7812L40.375 15.8359C39.3073 15.8776 38.5547 16.0521 38.1172 16.3594C37.6797 16.6667 37.4609 17.1016 37.4609 17.6641C37.4609 18.1536 37.6094 18.5156 37.9062 18.75C38.2031 18.9844 38.5964 19.1016 39.0859 19.1016C39.8464 19.1016 40.4688 18.8906 40.9531 18.4688C41.4375 18.0469 41.6797 17.4141 41.6797 16.5703V15.7812Z" fill="black"/>
<path d="M48.9482 22L47.3359 3.43945H51.0811L51.7285 14.6113C51.7539 14.9668 51.7666 15.3604 51.7666 15.792C51.7751 16.2236 51.7751 16.651 51.7666 17.0742C51.7581 17.4974 51.737 17.874 51.7031 18.2041H51.8174C51.9359 17.8232 52.0671 17.4339 52.2109 17.0361C52.3548 16.6383 52.5114 16.2363 52.6807 15.8301C52.8499 15.4154 53.0277 15.0091 53.2139 14.6113L58.6729 3.43945H62.6846L53.1885 22H48.9482Z" fill="#FF8E28"/>
<path d="M69.75 15.7031C69.75 16.4062 69.6589 17.0339 69.4766 17.5859C69.2943 18.138 69.0312 18.6042 68.6875 18.9844C68.3438 19.3646 67.9271 19.6562 67.4375 19.8594C66.9531 20.0573 66.4036 20.1562 65.7891 20.1562C65.2161 20.1562 64.6901 20.0573 64.2109 19.8594C63.737 19.6562 63.3255 19.3646 62.9766 18.9844C62.6328 18.6042 62.3646 18.138 62.1719 17.5859C61.9844 17.0339 61.8906 16.4062 61.8906 15.7031C61.8906 14.7656 62.0495 13.9688 62.3672 13.3125C62.6849 12.651 63.138 12.1484 63.7266 11.8047C64.3203 11.4557 65.026 11.2812 65.8438 11.2812C66.625 11.2812 67.3073 11.4557 67.8906 11.8047C68.4792 12.1536 68.9349 12.6589 69.2578 13.3203C69.5859 13.9766 69.75 14.7708 69.75 15.7031ZM63.2344 15.7031C63.2344 16.3906 63.3255 16.987 63.5078 17.4922C63.6901 17.9974 63.9714 18.388 64.3516 18.6641C64.7318 18.9401 65.2214 19.0781 65.8203 19.0781C66.4141 19.0781 66.901 18.9401 67.2812 18.6641C67.6667 18.388 67.9505 17.9974 68.1328 17.4922C68.3151 16.987 68.4062 16.3906 68.4062 15.7031C68.4062 15.0208 68.3151 14.4323 68.1328 13.9375C67.9505 13.4375 67.6693 13.0521 67.2891 12.7812C66.9089 12.5104 66.4167 12.375 65.8125 12.375C64.9219 12.375 64.2682 12.6693 63.8516 13.2578C63.4401 13.8464 63.2344 14.6615 63.2344 15.7031ZM73.0469 20H71.7422V7.84375H73.0469V20ZM78.3047 19.0938C78.5182 19.0938 78.737 19.0755 78.9609 19.0391C79.1849 19.0026 79.3672 18.9583 79.5078 18.9062V19.9141C79.3568 19.9818 79.1458 20.0391 78.875 20.0859C78.6094 20.1328 78.349 20.1562 78.0938 20.1562C77.6406 20.1562 77.2292 20.0781 76.8594 19.9219C76.4896 19.7604 76.1927 19.4896 75.9688 19.1094C75.75 18.7292 75.6406 18.2031 75.6406 17.5312V12.4531H74.4219V11.8203L75.6484 11.3125L76.1641 9.45312H76.9453V11.4375H79.4531V12.4531H76.9453V17.4922C76.9453 18.0286 77.0677 18.4297 77.3125 18.6953C77.5625 18.9609 77.8932 19.0938 78.3047 19.0938Z" fill="black"/>
</svg>
