<svg width="500" height="500" viewBox="0 0 500 500" fill="none" xmlns="http://www.w3.org/2000/svg">
<path d="M313.524 383.803C249.198 393.109 175.937 387.725 126.841 344.959C77.744 302.193 55.798 228.811 77.904 167.432C100.01 106.053 167.274 63.067 231.428 73.504C251.663 76.796 272.228 85.814 283.319 103.127C293.074 118.354 295.76 139.762 311.687 148.248C330.063 158.038 351.55 143.505 372.241 141.353C389.084 139.602 406.138 146.623 418.648 158.083C431.158 169.544 439.443 185.081 444.487 201.315C457.443 243.016 449.018 290.81 422.592 325.508C396.167 360.207 355.406 377.744 313.524 383.803Z" fill="#F2FFFF"/>
<path d="M255.853 473.319C342.756 473.319 413.205 462.385 413.205 448.898C413.205 435.411 342.756 424.477 255.853 424.477C168.95 424.477 98.501 435.411 98.501 448.898C98.501 462.385 168.95 473.319 255.853 473.319Z" fill="#ABD4ED"/>
<path d="M142.837 243.134C142.837 243.134 140.91 236.438 143.093 228.985C145.275 221.533 175.162 185.614 193.752 173.708C212.342 161.801 233.133 159.161 233.133 159.161C233.133 159.161 269.912 155.228 283.188 160.753C296.464 166.278 313.418 188.733 313.418 188.733C322.531 204.743 332.875 216.074 326.647 227.582C322.112 235.962 311.677 239.264 302.912 235.526C297.201 233.09 291.952 229.558 286.937 225.471L212.495 230.904L206.279 224.31L189.713 240.373L142.837 243.134Z" fill="#FF911F"/>
<mask id="mask0_151_79" style="mask-type:luminance" maskUnits="userSpaceOnUse" x="142" y="157" width="187" height="87">
<path d="M142.837 243.134C142.837 243.134 140.91 236.438 143.093 228.985C145.275 221.533 175.162 185.614 193.752 173.708C212.342 161.801 233.133 159.161 233.133 159.161C233.133 159.161 269.912 155.228 283.188 160.753C296.464 166.278 313.418 188.733 313.418 188.733C322.531 204.743 332.875 216.074 326.647 227.582C322.112 235.962 311.677 239.264 302.912 235.526C297.201 233.09 291.952 229.558 286.937 225.471L212.495 230.904L206.279 224.31L189.713 240.373L142.837 243.134Z" fill="white"/>
</mask>
<g mask="url(#mask0_151_79)">
<path d="M276.063 155.982C281.935 160.575 286.261 166.427 287.17 173.827C295.586 178.763 302.275 186.724 308.169 194.5C308.831 191.686 310.457 189.226 311.952 186.752C313.447 184.278 314.596 181.252 313.6 178.538C313.207 177.467 312.509 176.539 311.819 175.629C307.526 169.965 303.096 164.237 297.263 160.176C291.43 156.115 283.876 153.909 277.099 156.05" fill="#FFC248"/>
<path d="M191.139 173.045C192.805 175.103 193.907 177.614 194.293 180.233C181.587 188.87 170.205 199.689 161.394 212.887C164.735 213.911 167.543 215.717 170.43 217.685C166.314 216.52 163.583 216.399 159.318 216.721C151.085 217.341 146.948 229.377 147.357 237.623C143.977 240.729 140.521 243.893 137.141 246.999C138.021 233.807 139.795 220.224 146.538 208.852C151.453 200.562 158.71 193.962 165.857 187.496C169.454 184.241 173.082 180.964 177.248 178.477C181.413 175.99 186.204 174.317 191.048 174.577" fill="#FFC248"/>
</g>
<path d="M142.837 243.134C142.837 243.134 140.91 236.438 143.093 228.985C145.275 221.533 175.162 185.614 193.752 173.708C212.342 161.801 233.133 159.161 233.133 159.161C233.133 159.161 269.912 155.228 283.188 160.753C296.464 166.278 313.418 188.733 313.418 188.733C322.531 204.743 332.875 216.074 326.647 227.582C322.112 235.962 311.677 239.264 302.912 235.526C297.201 233.09 291.952 229.558 286.937 225.471L212.495 230.904L206.279 224.31L189.713 240.373L142.837 243.134Z" stroke="#1E2842" stroke-width="2" stroke-miterlimit="10" stroke-linecap="round" stroke-linejoin="round"/>
<path d="M246.812 175.881C250.213 184.631 252.634 193.382 254.075 202.132" stroke="#1E2842" stroke-width="2" stroke-miterlimit="10" stroke-linecap="round" stroke-linejoin="round"/>
<path d="M192.642 190.774C201.289 198.12 206.513 209.338 206.572 220.684" stroke="#1E2842" stroke-width="2" stroke-miterlimit="10" stroke-linecap="round" stroke-linejoin="round"/>
<path d="M188.022 230.172C184.375 225.442 179.262 221.858 173.571 220.045" stroke="#1E2842" stroke-width="2" stroke-miterlimit="10" stroke-linecap="round" stroke-linejoin="round"/>
<path d="M274.951 181.133C268.514 181.133 263.297 186.349 263.297 192.787C263.297 199.224 268.513 204.441 274.951 204.441C281.388 204.441 286.605 199.225 286.605 192.787C286.605 186.35 281.389 181.133 274.951 181.133ZM274.951 198.971C271.532 198.971 268.768 196.206 268.768 192.788C268.768 189.379 271.532 186.614 274.951 186.614C278.36 186.614 281.125 189.379 281.125 192.788C281.125 196.206 278.361 198.971 274.951 198.971Z" fill="#F9D510" stroke="#1E2842" stroke-width="2" stroke-miterlimit="10" stroke-linecap="round" stroke-linejoin="round"/>
<path d="M265.896 181.24L275.384 188.191L284.153 183.173C283.104 172.019 280.734 164.586 276.567 157.423C272.002 155.702 264.843 155.381 259.179 156.313C262.655 165.938 264.993 172.23 265.896 181.24Z" fill="#5187F5" stroke="#1E2842" stroke-width="2" stroke-miterlimit="10" stroke-linecap="round" stroke-linejoin="round"/>
<path d="M224.359 187.474C217.922 187.474 212.705 192.69 212.705 199.128C212.705 205.565 217.921 210.782 224.359 210.782C230.796 210.782 236.013 205.566 236.013 199.128C236.012 192.69 230.796 187.474 224.359 187.474ZM224.359 205.311C220.94 205.311 218.176 202.547 218.176 199.128C218.176 195.719 220.94 192.954 224.359 192.954C227.768 192.954 230.533 195.718 230.533 199.128C230.532 202.547 227.768 205.311 224.359 205.311Z" fill="#F9D510" stroke="#1E2842" stroke-width="2" stroke-miterlimit="10" stroke-linecap="round" stroke-linejoin="round"/>
<path d="M211.586 193.775L223.399 195.194L228.63 186.171C222.162 176.634 215.522 168.268 208.292 163.932C202.806 164.944 197.358 167.694 191.941 171.881C199.786 178.795 206.312 186.1 211.586 193.775Z" fill="#5187F5" stroke="#1E2842" stroke-width="2" stroke-miterlimit="10" stroke-linecap="round" stroke-linejoin="round"/>
<path d="M174.119 406.251C180.865 361.588 194.614 312.708 210.216 275.375C210.555 270.475 210.842 267.407 211.13 264.339C209.799 252.222 207.958 242.399 206.117 232.577C213.179 222.164 215.926 212.036 215.864 201.912C237.937 194.651 260.2 191.411 282.407 192.576C287.048 198.043 290.605 204.427 293.788 212.735C293.99 223.864 293.593 235.003 292.782 247.736C293.655 250.265 294.282 252.804 295.417 255.036C310.921 258.948 328.617 264.87 342.903 274.946C351.95 281.327 354.655 293.611 350.376 303.822C344.125 318.74 335.736 338.553 329.494 354.373C314.724 360.983 296.972 362.679 283.534 362.654C287.219 344.797 293.414 324.326 299.801 307.593C287.455 306.924 274.573 306.008 259.99 305.036C248.205 327.247 221.86 394.114 215.161 416.995C200.157 416.28 185.614 413.608 174.119 406.251Z" fill="#5187F5"/>
<mask id="mask1_151_79" style="mask-type:luminance" maskUnits="userSpaceOnUse" x="174" y="192" width="179" height="225">
<path d="M174.119 406.251C180.865 361.588 194.614 312.708 210.216 275.375C210.555 270.475 210.842 267.407 211.13 264.339C209.799 252.222 207.958 242.399 206.117 232.577C213.179 222.164 215.926 212.036 215.864 201.912C237.937 194.651 260.2 191.411 282.407 192.576C287.048 198.043 290.605 204.427 293.788 212.735C293.99 223.864 293.593 235.003 292.782 247.736C293.655 250.265 294.282 252.804 295.417 255.036C310.921 258.948 328.617 264.87 342.903 274.946C351.95 281.327 354.655 293.611 350.376 303.822C344.125 318.74 335.736 338.553 329.494 354.373C314.724 360.983 296.972 362.679 283.534 362.654C287.219 344.797 293.414 324.326 299.801 307.593C287.455 306.924 274.573 306.008 259.99 305.036C248.205 327.247 221.86 394.114 215.161 416.995C200.157 416.28 185.614 413.608 174.119 406.251Z" fill="white"/>
</mask>
<g mask="url(#mask1_151_79)">
<path d="M301.346 254.888C300.854 258.008 298.793 260.678 296.397 262.735C294.001 264.793 291.234 266.369 288.71 268.267C285.011 271.049 281.697 274.6 277.293 276.021C286.533 274.942 295.41 271.811 303.224 266.763C312.487 269.328 321.937 273.33 330.319 278.036C333.668 279.917 336.958 281.984 339.681 284.694C341.485 286.49 343.033 288.597 344.058 290.916C345.301 293.732 347.928 295.705 350.95 296.295C352.884 296.673 354.851 296.864 356.864 296.839C356.766 284.051 350.934 270.986 341.049 262.872C331.164 254.758 317.61 251.305 305.048 253.702" fill="#85BEFF"/>
</g>
<mask id="mask2_151_79" style="mask-type:luminance" maskUnits="userSpaceOnUse" x="174" y="192" width="179" height="225">
<path d="M174.119 406.251C180.865 361.588 194.614 312.708 210.216 275.375C210.555 270.475 210.842 267.407 211.13 264.339C209.799 252.222 207.958 242.399 206.117 232.577C213.179 222.164 215.926 212.036 215.864 201.912C237.937 194.651 260.2 191.411 282.407 192.576C287.048 198.043 290.605 204.427 293.788 212.735C293.99 223.864 293.593 235.003 292.782 247.736C293.655 250.265 294.282 252.804 295.417 255.036C310.921 258.948 328.617 264.87 342.903 274.946C351.95 281.327 354.655 293.611 350.376 303.822C344.125 318.74 335.736 338.553 329.494 354.373C314.724 360.983 296.972 362.679 283.534 362.654C287.219 344.797 293.414 324.326 299.801 307.593C287.455 306.924 274.573 306.008 259.99 305.036C248.205 327.247 221.86 394.114 215.161 416.995C200.157 416.28 185.614 413.608 174.119 406.251Z" fill="white"/>
</mask>
<g mask="url(#mask2_151_79)">
<path d="M339.164 281.171C342.106 287.056 346.861 293.386 336.286 319.086C331.649 330.354 327.636 340.777 327.636 353.161C333.37 353.404 332.846 352.252 338.58 352.495C343.898 337.017 349.217 321.537 354.171 305.948C355.421 302.016 356.656 298.024 356.812 293.917C356.967 289.81 355.929 285.51 353.102 282.414C350.275 279.318 345.438 277.741 341.473 279.327" fill="#85BEFF"/>
</g>
<path d="M174.119 406.251C180.865 361.588 194.614 312.708 210.216 275.375C210.555 270.475 210.842 267.407 211.13 264.339C209.799 252.222 207.958 242.399 206.117 232.577C213.179 222.164 215.926 212.036 215.864 201.912C237.937 194.651 260.2 191.411 282.407 192.576C287.048 198.043 290.605 204.427 293.788 212.735C293.99 223.864 293.593 235.003 292.782 247.736C293.655 250.265 294.282 252.804 295.417 255.036C310.921 258.948 328.617 264.87 342.903 274.946C351.95 281.327 354.655 293.611 350.376 303.822C344.125 318.74 335.736 338.553 329.494 354.373C314.724 360.983 296.972 362.679 283.534 362.654C287.219 344.797 293.414 324.326 299.801 307.593C287.455 306.924 274.573 306.008 259.99 305.036C248.205 327.247 221.86 394.114 215.161 416.995C200.157 416.28 185.614 413.608 174.119 406.251Z" stroke="#1E2842" stroke-width="2" stroke-miterlimit="10" stroke-linecap="round" stroke-linejoin="round"/>
<path d="M292.784 247.736C272.5 254.848 244.201 256.277 213.334 255.885" stroke="#1E2842" stroke-width="2" stroke-miterlimit="10" stroke-linecap="round" stroke-linejoin="round"/>
<path d="M295.418 255.037C275.134 262.149 246.835 264.692 215.968 264.3" stroke="#1E2842" stroke-width="2" stroke-miterlimit="10" stroke-linecap="round" stroke-linejoin="round"/>
<path d="M233.87 216.214C250.014 211.571 265.464 209.798 280.222 210.097C282.247 217.878 283.188 224.312 282.692 230.54C277.985 236.079 271.317 240.115 262.466 242.479C255.014 242.596 247.309 240.821 239.438 237.807C236.766 231.661 235.065 224.263 233.87 216.214Z" fill="#5187F5" stroke="#1E2842" stroke-width="2" stroke-miterlimit="10" stroke-linecap="round" stroke-linejoin="round"/>
<path d="M263.625 262.896C267.023 275.662 266.144 291.617 259.992 305.037" stroke="#1E2842" stroke-width="2" stroke-miterlimit="10" stroke-linecap="round" stroke-linejoin="round"/>
<path d="M273.517 261.213C276.34 269.858 277.817 278.06 276.055 285.196C272.336 288.951 268.411 291.371 264.333 292.768" stroke="#1E2842" stroke-width="2" stroke-miterlimit="10" stroke-linecap="round" stroke-linejoin="round"/>
<path d="M234.789 292.115C258.666 287.344 279.794 277.824 296.974 261.486" stroke="#1E2842" stroke-width="2" stroke-miterlimit="10" stroke-linecap="round" stroke-linejoin="round"/>
<path d="M302.021 307.523C306.27 308.542 310.724 308.697 315.034 307.977" stroke="#1E2842" stroke-width="2" stroke-miterlimit="10" stroke-linecap="round" stroke-linejoin="round"/>
<path d="M302.601 310.769C303.923 315.352 307.729 319.135 312.32 320.428" stroke="#1E2842" stroke-width="2" stroke-miterlimit="10" stroke-linecap="round" stroke-linejoin="round"/>
<path d="M208.197 429.319C207.162 434.526 207.924 440.592 207.24 447.136C207.054 448.953 206.752 450.809 206.273 452.694C205.745 454.745 204.436 456.523 202.639 457.647C190.204 465.393 171.4 463.821 163.947 453.632C163.156 452.548 162.677 451.258 162.55 449.92C162.413 448.474 162.442 447.107 162.609 445.788C163.41 439.292 167.483 434.007 171.313 427.111L181.804 421.983L208.197 429.319Z" fill="#1D324F" stroke="#1E2842" stroke-width="2" stroke-miterlimit="10" stroke-linecap="round" stroke-linejoin="round"/>
<path d="M207.24 447.137C207.054 448.954 206.752 450.81 206.273 452.695C205.745 454.746 204.436 456.524 202.639 457.648C190.204 465.394 171.4 463.822 163.947 453.633C163.156 452.549 162.677 451.259 162.55 449.921C162.413 448.475 162.442 447.108 162.609 445.789C164.094 447.538 165.901 449.022 167.874 450.195C171.332 452.256 175.278 453.409 179.264 453.936C189.002 455.215 199.152 452.675 207.24 447.137Z" fill="#628DA0" stroke="#1E2842" stroke-width="2" stroke-miterlimit="10" stroke-linecap="round" stroke-linejoin="round"/>
<path d="M177.008 404.07C189.107 407.718 203.197 410.11 215.256 409.737C217.415 409.67 219.268 411.305 219.505 413.451C220.455 422.037 218.398 429.431 212.857 432.581C197.521 435.706 184.01 418.788 168.733 430.217C165.441 428.881 165.715 422.227 168.733 419.517C168.504 415.885 168.594 411.591 169.84 407.804C170.818 404.832 174.012 403.166 177.008 404.07Z" fill="#5187F5" stroke="#1E2842" stroke-width="2" stroke-miterlimit="10" stroke-linecap="round" stroke-linejoin="round"/>
<path d="M327.968 181.943C326.678 179.88 323.369 178.361 319.915 177.595C316.335 176.801 312.557 178.125 310.406 180.856C300.521 193.406 297.74 209.148 303.738 222.759C305.701 227.213 308.638 229.146 312.858 228.936C313.678 228.895 314.504 228.777 315.35 228.576C325.745 233.997 337.322 230.89 334.911 213.347L327.968 181.943Z" fill="#FF911F" stroke="#1E2842" stroke-width="2" stroke-miterlimit="10" stroke-linecap="round" stroke-linejoin="round"/>
<path d="M330.242 170.729C328.161 173.794 321.96 181.763 318.736 182.753C307.345 206.128 314.351 222.571 329.727 223.142C338.873 209.957 346.185 194.833 351.275 179.644L330.242 170.729Z" fill="#FDBBAA" stroke="#1E2842" stroke-width="2" stroke-miterlimit="10" stroke-linecap="round" stroke-linejoin="round"/>
<path d="M350.367 124.91C346.793 120.277 344.738 114.504 344.506 108.662C344.388 105.687 341.35 103.741 338.646 104.988C338.151 105.216 337.681 105.491 337.248 105.806C335.166 107.325 333.861 109.759 333.391 112.293C332.921 114.827 333.231 117.456 333.922 119.939C334.612 122.422 335.673 124.783 336.73 127.133" fill="#F9D510"/>
<path d="M350.367 124.91C346.793 120.277 344.738 114.504 344.506 108.662C344.388 105.687 341.35 103.741 338.646 104.988C338.151 105.216 337.681 105.491 337.248 105.806C335.166 107.325 333.861 109.759 333.391 112.293C332.921 114.827 333.231 117.456 333.922 119.939C334.612 122.422 335.673 124.783 336.73 127.133" stroke="#1E2842" stroke-width="2" stroke-miterlimit="10" stroke-linecap="round" stroke-linejoin="round"/>
<path d="M331.82 152.863C328.268 155.848 325.239 159.455 322.913 163.469C331.734 187.88 344.466 193.657 361.919 176.944L360.412 155.532" fill="#F9D510"/>
<path d="M331.82 152.863C328.268 155.848 325.239 159.455 322.913 163.469C331.734 187.88 344.466 193.657 361.919 176.944L360.412 155.532" stroke="#1E2842" stroke-width="2" stroke-miterlimit="10" stroke-linecap="round" stroke-linejoin="round"/>
<path d="M358.445 168.383C362.167 159.602 363.22 145.378 361.463 133.926C360.775 129.439 357.518 125.724 353.135 124.544C346.69 122.809 339.947 123.459 334.255 126.027C331.702 127.179 329.74 129.47 329.271 132.231C328.834 134.808 329.711 137.356 332.614 139.167C328.117 141.154 328.042 147.291 331.849 149.251C327.985 151.823 328.74 156.083 331.924 159.293C325.921 164.366 333.573 171.45 344.089 170.63" fill="#F9D510"/>
<path d="M358.445 168.383C362.167 159.602 363.22 145.378 361.463 133.926C360.775 129.439 357.518 125.724 353.135 124.544C346.69 122.809 339.947 123.459 334.255 126.027C331.702 127.179 329.74 129.47 329.271 132.231C328.834 134.808 329.711 137.356 332.614 139.167C328.117 141.154 328.042 147.291 331.849 149.251C327.985 151.823 328.74 156.083 331.924 159.293C325.921 164.366 333.573 171.45 344.089 170.63" stroke="#1E2842" stroke-width="2" stroke-miterlimit="10" stroke-linecap="round" stroke-linejoin="round"/>
<path d="M332.615 139.167C337.797 136.553 343.102 136.257 347.905 138.262Z" fill="#F9D510"/>
<path d="M332.615 139.167C337.797 136.553 343.102 136.257 347.905 138.262" stroke="#1E2842" stroke-width="2" stroke-miterlimit="10" stroke-linecap="round" stroke-linejoin="round"/>
<path d="M332.144 149.251C337.326 146.637 342.631 146.341 347.434 148.346Z" fill="#F9D510"/>
<path d="M332.144 149.251C337.326 146.637 342.631 146.341 347.434 148.346" stroke="#1E2842" stroke-width="2" stroke-miterlimit="10" stroke-linecap="round" stroke-linejoin="round"/>
<path d="M332.144 159.161C337.326 156.547 342.631 156.251 347.434 158.256Z" fill="#F9D510"/>
<path d="M332.144 159.161C337.326 156.547 342.631 156.251 347.434 158.256" stroke="#1E2842" stroke-width="2" stroke-miterlimit="10" stroke-linecap="round" stroke-linejoin="round"/>
<path d="M192.822 246.424C192.699 243.287 192.152 240.269 191.039 237.408C190.04 234.842 187.849 232.866 185.171 232.039C169.96 227.342 156.038 228.544 143.683 236.924C140.446 239.12 138.605 242.827 138.997 246.66C139.318 249.794 140.317 252.87 142.05 255.881C141.434 268.158 148.507 269.273 161.498 265.136L192.822 246.424Z" fill="#FF911F" stroke="#1E2842" stroke-width="2" stroke-miterlimit="10" stroke-linecap="round" stroke-linejoin="round"/>
<path d="M192.822 245.128C175.263 239.082 161.693 246.844 150.181 261.733C160.315 266.763 171.56 269.083 183.933 268.657L192.822 245.128Z" fill="#FDBBAA" stroke="#1E2842" stroke-width="2" stroke-miterlimit="10" stroke-linecap="round" stroke-linejoin="round"/>
<path d="M205.159 246.214C201.701 243.028 197.665 241.174 193.178 240.361C179.498 250.1 177.441 263.474 184.301 279.539C189.971 280.225 195.235 279.51 200.117 277.481" fill="#F9D510"/>
<path d="M205.159 246.214C201.701 243.028 197.665 241.174 193.178 240.361C179.498 250.1 177.441 263.474 184.301 279.539C189.971 280.225 195.235 279.51 200.117 277.481" stroke="#1E2842" stroke-width="2" stroke-miterlimit="10" stroke-linecap="round" stroke-linejoin="round"/>
<path d="M199.236 248.465C199.236 248.465 207.465 237.106 213.543 233.328C219.621 229.55 235.616 230.146 234.729 235.209C233.843 240.272 224.908 240.414 223.195 241.088C221.482 241.762 220.57 243.5 220.57 243.5C220.57 243.5 224.378 243.767 228.01 245.285C234.191 247.868 244.387 261.802 233.133 261.732C234.6 263.403 237.619 271.127 229.292 269.148C230.393 270.774 232.283 275.911 225.376 275.419C218.962 274.962 214.982 273.58 214.982 273.58C214.982 273.58 203.664 281.419 193.752 274.654" fill="#F9D510"/>
<path d="M199.236 248.465C199.236 248.465 207.465 237.106 213.543 233.328C219.621 229.55 235.616 230.146 234.729 235.209C233.843 240.272 224.908 240.414 223.195 241.088C221.482 241.762 220.57 243.5 220.57 243.5C220.57 243.5 224.378 243.767 228.01 245.285C234.191 247.868 244.387 261.802 233.133 261.732C234.6 263.403 237.619 271.127 229.292 269.148C230.393 270.774 232.283 275.911 225.376 275.419C218.962 274.962 214.982 273.58 214.982 273.58C214.982 273.58 203.664 281.419 193.752 274.654" stroke="#1E2842" stroke-width="2" stroke-miterlimit="10" stroke-linecap="round" stroke-linejoin="round"/>
<path d="M233.134 261.732C229.322 256.588 222.517 253.797 214.732 251.777Z" fill="#F9D510"/>
<path d="M233.134 261.732C229.322 256.588 222.517 253.797 214.732 251.777" stroke="#1E2842" stroke-width="2" stroke-miterlimit="10" stroke-linecap="round" stroke-linejoin="round"/>
<path d="M229.111 268.995C225.566 264.3 218.63 262.528 211.334 261.278Z" fill="#F9D510"/>
<path d="M229.111 268.995C225.566 264.3 218.63 262.528 211.334 261.278" stroke="#1E2842" stroke-width="2" stroke-miterlimit="10" stroke-linecap="round" stroke-linejoin="round"/>
<path d="M220.57 243.5L215.324 243.684" stroke="#1E2842" stroke-width="2" stroke-miterlimit="10" stroke-linecap="round" stroke-linejoin="round"/>
<path d="M262.625 368.967C259.094 365.18 255.564 361.393 251.405 357.396C249.07 364.206 251.003 372.285 256.168 377.3C258.429 375.044 260.69 372.787 262.625 368.967Z" fill="#AECCD4" stroke="#1E2842" stroke-width="2" stroke-miterlimit="10" stroke-linecap="round" stroke-linejoin="round"/>
<path d="M282.166 444.489L263.66 388.899C259.098 384.98 254.3 381.239 249.502 377.498C254.839 371.832 259.441 367.484 264.043 363.136C261.616 359.058 258.823 355.544 256.03 352.031C261.262 351.384 266.244 353.07 269.922 356.188C273.109 358.89 274.554 363.112 273.963 367.248C273.3 371.885 272.733 376.449 272.174 381.005C272.052 382.001 272.147 383.016 272.456 383.971C278.674 403.234 285.998 421.539 294.49 440.438C292.459 444.043 288.311 446.344 282.166 444.489Z" fill="#AECCD4" stroke="#1E2842" stroke-width="2" stroke-miterlimit="10" stroke-linecap="round" stroke-linejoin="round"/>
<path d="M267.754 373.742L264.133 377.363C262.984 378.512 261.121 378.512 259.973 377.363L259.723 377.113C258.574 375.964 258.574 374.101 259.723 372.952L263.344 369.331C264.493 368.182 266.356 368.182 267.504 369.331L267.754 369.581C268.903 370.73 268.903 372.593 267.754 373.742Z" fill="#AECCD4" stroke="#1E2842" stroke-width="2" stroke-miterlimit="10" stroke-linecap="round" stroke-linejoin="round"/>
<path d="M360.426 369.538L329.398 395.578L334.931 427.117L385.801 418.868L391.718 403.219L360.426 369.538Z" fill="#FF6464" stroke="#1E2842" stroke-width="2" stroke-miterlimit="10" stroke-linecap="round" stroke-linejoin="round"/>
<path d="M275.523 385.977C291.167 383.794 341.746 377.907 357.26 376.11C359.694 375.828 361.827 377.731 361.827 380.182C361.827 382.246 360.293 383.987 358.246 384.248L276.767 394.621C274.767 394.876 272.879 393.638 272.314 391.702L272.163 391.183C271.463 388.783 273.048 386.322 275.523 385.977Z" fill="#EDD88A" stroke="#1E2842" stroke-width="2" stroke-miterlimit="10" stroke-linecap="round" stroke-linejoin="round"/>
<path d="M334.468 394.654L334.225 420.608L287.607 426.061L281.425 400.368L334.468 394.654Z" fill="#C1A056" stroke="#1E2842" stroke-width="2" stroke-miterlimit="10" stroke-linecap="round" stroke-linejoin="round"/>
<path d="M346.4 390.763C339.562 391.29 332.627 391.203 325.603 390.548C321.168 390.138 316.841 388.966 312.806 387.08L306.808 384.277L302.08 386.24C294.402 385.976 287.984 383.749 282.133 380.662L283.491 373.023L283.511 372.896L330.311 359.484L334.521 364.876L338.272 368.178L343.146 370.933C347.395 373.346 350.404 377.449 351.391 382.206L351.664 383.476L351.723 383.759C352.437 387.208 349.936 390.5 346.4 390.763Z" fill="#1D324F" stroke="#1E2842" stroke-width="2" stroke-miterlimit="10" stroke-linecap="round" stroke-linejoin="round"/>
<path d="M346.4 390.763C339.562 391.29 332.627 391.203 325.603 390.548C321.168 390.138 316.841 388.966 312.806 387.08L306.808 384.277L302.08 386.24C294.402 385.976 287.984 383.749 282.133 380.662L283.491 373.023C289.495 376.67 295.586 379.768 302.188 379.656L310.716 375.71C322.351 382.611 335.824 385.578 351.665 383.476L351.724 383.759C352.437 387.208 349.936 390.5 346.4 390.763Z" fill="#628DA0" stroke="#1E2842" stroke-width="2" stroke-miterlimit="10" stroke-linecap="round" stroke-linejoin="round"/>
<path d="M285.178 355.222C296.483 356.027 316.224 343.415 332.764 348.658C334.974 350.316 335.498 355.327 333.631 358.53C336.685 359.054 336.806 362.908 334.468 364.258C324.549 360.413 294.481 381.625 282.441 376.292C279.152 374.835 277.726 369.396 281.606 366.536C280.323 362.33 281.273 357.347 285.178 355.222Z" fill="#5187F5" stroke="#1E2842" stroke-width="2" stroke-miterlimit="10" stroke-linecap="round" stroke-linejoin="round"/>
<path d="M392.868 404.693L384.419 438.316L297.695 457.901L247.241 450.145L244.604 411.961L269.259 379.882L270.285 379.833L275.863 379.549L304.855 413.543L308.01 417.246L384.917 405.582L360.164 369.537L365.937 368.638L392.868 404.693Z" fill="#F42F4C" stroke="#1E2842" stroke-width="2" stroke-miterlimit="10" stroke-linecap="round" stroke-linejoin="round"/>
<path d="M300.752 418.77L297.695 457.902L247.241 450.146L244.604 411.962L269.259 379.883L270.285 379.834L300.752 418.77Z" fill="#FF6464" stroke="#1E2842" stroke-width="2" stroke-miterlimit="10" stroke-linecap="round" stroke-linejoin="round"/>
<path d="M303.685 401.787L315.414 434.191L314.656 437.038L317.178 440.417L321.001 439.139L320.63 435.342L318.713 433.423L308.988 400.469L303.685 401.787Z" fill="#AECCD4" stroke="#1E2842" stroke-width="2" stroke-miterlimit="10" stroke-linecap="round" stroke-linejoin="round"/>
<path d="M311.192 398.388C311.873 400.715 309.397 401.5 306.282 402.265C303.167 403.03 300.595 403.486 299.914 401.159C299.519 399.81 300.011 398.396 301.102 397.301C297.622 393.136 293.823 385.376 292.169 379.722C289.713 371.326 292.196 368.306 296.07 367.354C299.945 366.402 303.742 367.88 306.198 376.275C307.852 381.929 308.798 390.39 308.057 395.592C309.601 396.039 310.798 397.039 311.192 398.388Z" fill="#F9D510" stroke="#1E2842" stroke-width="2" stroke-miterlimit="10" stroke-linecap="round" stroke-linejoin="round"/>
<path d="M301.857 377.461C303.131 381.817 306.643 398.156 305.184 398.514C303.725 398.872 297.849 383.114 296.575 378.759C295.301 374.403 296.142 372.946 297.601 372.587C299.06 372.228 300.583 373.105 301.857 377.461Z" fill="#1E2842"/>
<path d="M307.576 399.437C308.162 401.264 307.171 401.295 306.078 401.563C304.985 401.832 304.144 402.21 303.618 400.409C303.034 398.412 303.446 396.575 304.54 396.306C305.632 396.038 306.939 397.453 307.576 399.437Z" fill="#1E2842"/>
<path d="M375.567 361.512L371.587 373.305C365.567 375.895 361.36 374.577 358.998 369.26L362.587 358.334C362.587 358.334 353.294 363.576 352.437 373.316C352.147 376.613 353.817 379.414 356.415 381.352L338.782 431.015C342.212 431.114 345.699 431.427 348.938 432.395L366.055 384.185C369.305 384.023 372.478 382.765 374.69 380.098C381.606 371.772 375.567 361.512 375.567 361.512Z" fill="#AECCD4" stroke="#1E2842" stroke-width="2" stroke-miterlimit="10" stroke-linecap="round" stroke-linejoin="round"/>
<path d="M350.912 402.742C349.104 403.677 346.924 403.499 345.283 402.315L336.141 395.711L335.078 402.099L331.336 401.476L325.276 442.766L318.386 444.285L326.511 400.672L326.255 400.63L324.263 399.325C323.01 398.499 322.361 397.016 322.607 395.543C319.521 397.841 315.494 398.375 312.703 396.767L314.72 384.653C318.44 384.577 320.269 386.025 323.673 389.14L324.271 385.826L337.36 387.742C337.36 387.742 337.117 389.2 337.055 389.576C337.022 389.771 340.49 393.067 343.967 396.303C347.427 399.551 350.912 402.742 350.912 402.742Z" fill="#6295EF" stroke="#1E2842" stroke-width="2" stroke-miterlimit="10" stroke-linecap="round" stroke-linejoin="round"/>
<path d="M412.166 382.651L409.677 385.561L395.61 373.525L364.528 409.854L360.189 406.142L391.271 369.813L383.013 362.748L387.993 356.928L403.951 370.581L412.166 382.651Z" fill="#1D324F" stroke="#1E2842" stroke-width="2" stroke-miterlimit="10" stroke-linecap="round" stroke-linejoin="round"/>
<path d="M341.729 434.834L339.043 432.536C337.104 430.877 336.877 427.961 338.536 426.022L359.669 401.322C361.328 399.383 364.244 399.156 366.183 400.815L368.869 403.113C370.808 404.772 371.035 407.688 369.376 409.627L348.243 434.327C346.584 436.266 343.668 436.492 341.729 434.834Z" fill="#F9D510" stroke="#1E2842" stroke-width="2" stroke-miterlimit="10" stroke-linecap="round" stroke-linejoin="round"/>
<path d="M384.917 405.582L308.01 417.246L304.855 413.543L374.641 403.716L384.917 405.582Z" fill="#EDD88A" stroke="#1E2842" stroke-width="2" stroke-miterlimit="10" stroke-linecap="round" stroke-linejoin="round"/>
<path d="M384.917 405.582L379.173 432.953L306.096 448.651L307.434 426.652L308.01 417.246L384.917 405.582Z" fill="#EDD88A" stroke="#1E2842" stroke-width="2" stroke-miterlimit="10" stroke-linecap="round" stroke-linejoin="round"/>
<path d="M247.795 174.223V154.942C252.647 154.414 253.834 154.085 256.372 154.617C262.624 155.816 266.37 162.991 270.245 172.536C262.391 168.968 255.954 168.317 252.059 173.564" fill="#FF911F"/>
<path d="M247.795 174.223V154.942C252.647 154.414 253.834 154.085 256.372 154.617C262.624 155.816 266.37 162.991 270.245 172.536C262.391 168.968 255.954 168.317 252.059 173.564" stroke="#1E2842" stroke-width="2" stroke-miterlimit="10" stroke-linecap="round" stroke-linejoin="round"/>
<path d="M222.209 152.863C222.751 156.025 222.825 159.254 222.514 163.468C228.999 167.215 236.563 175.292 246.813 175.882C249.614 172.241 250.55 164.911 250.218 160.579C248.309 158.517 247.151 155.887 246.965 153.194C238.511 153.498 230.025 153.052 222.209 152.863Z" fill="#FDBBAA" stroke="#1E2842" stroke-width="2" stroke-miterlimit="10" stroke-linecap="round" stroke-linejoin="round"/>
<path d="M246.219 175.973C235.459 174.41 226.214 166.418 222.009 157.292C220.675 157.324 219.411 157.44 218.22 157.645C212.871 158.562 209.662 163.602 211.346 168.319L220.042 184.654C225.833 175.68 229.17 174.37 238.597 177.307" fill="#FF911F"/>
<path d="M246.219 175.973C235.459 174.41 226.214 166.418 222.009 157.292C220.675 157.324 219.411 157.44 218.22 157.645C212.871 158.562 209.662 163.602 211.346 168.319L220.042 184.654C225.833 175.68 229.17 174.37 238.597 177.307" stroke="#1E2842" stroke-width="2" stroke-miterlimit="10" stroke-linecap="round" stroke-linejoin="round"/>
<path d="M257.884 106.964C259.776 99.654 267.867 94.367 275.113 95.964C281.139 97.291 283.993 103.481 283.063 109.41C281.858 117.094 274.704 121.759 268.243 124.743" fill="#FDBBAA"/>
<path d="M257.884 106.964C259.776 99.654 267.867 94.367 275.113 95.964C281.139 97.291 283.993 103.481 283.063 109.41C281.858 117.094 274.704 121.759 268.243 124.743" stroke="#1E2842" stroke-width="2" stroke-miterlimit="10" stroke-linecap="round" stroke-linejoin="round"/>
<path d="M259.316 62.014C269.676 73.339 272.37 95.114 266.696 109.375C263.092 95.724 257.558 78.32 249.482 66.74C251.287 65.025 253.485 63.726 259.316 62.014Z" fill="#375F99" stroke="#1E2842" stroke-width="2" stroke-miterlimit="10" stroke-linecap="round" stroke-linejoin="round"/>
<path d="M196.136 143.407C196.136 143.407 167.288 122.164 164.89 104.977C162.492 87.79 170.314 69.564 184.424 59.462C193.154 53.212 203.854 50.049 214.567 49.344C229.777 48.342 243.376 50.958 253.413 62.431C263.566 74.036 268.335 92.193 269.734 109.049C276.986 115.881 277.249 127.617 272.752 136.508C269.537 142.865 260.72 150.134 253.743 154.277C248.776 157.227 242.531 158.292 236.782 157.729C211.303 155.23 196.136 143.407 196.136 143.407Z" fill="#FDBBAA" stroke="#1E2842" stroke-width="2" stroke-miterlimit="10" stroke-linecap="round" stroke-linejoin="round"/>
<path d="M189.235 131.242C189.076 125.696 188.918 120.15 188.759 114.604C191.111 104.969 191.563 95.307 190.047 85.827C181.556 93.277 173.065 100.728 164.002 109.042C165.84 115.78 164.735 123.266 161.029 129.185C163.355 130.591 166.448 130.621 168.997 129.411C170.134 133.225 172.505 136.66 175.621 139.131C180.021 135.961 184.563 132.99 189.235 131.242Z" fill="#375F99" stroke="#1E2842" stroke-width="2" stroke-miterlimit="10" stroke-linecap="round" stroke-linejoin="round"/>
<path d="M190.119 126.721C181.909 124.385 174.272 128.418 173.164 134.405C172.219 139.51 173.3 144.862 177.401 148.315C181.418 151.697 187.082 152.633 191.92 150.554C195 149.231 197.733 147.166 200.102 144.82" fill="#FDBBAA"/>
<path d="M190.119 126.721C181.909 124.385 174.272 128.418 173.164 134.405C172.219 139.51 173.3 144.862 177.401 148.315C181.418 151.697 187.082 152.633 191.92 150.554C195 149.231 197.733 147.166 200.102 144.82" stroke="#1E2842" stroke-width="2" stroke-miterlimit="10" stroke-linecap="round" stroke-linejoin="round"/>
<path d="M178.773 54.271C181.777 54.271 184.213 51.8354 184.213 48.831C184.213 45.8266 181.777 43.391 178.773 43.391C175.769 43.391 173.333 45.8266 173.333 48.831C173.333 51.8354 175.769 54.271 178.773 54.271Z" fill="#F9D510" stroke="#1E2842" stroke-width="2" stroke-miterlimit="10" stroke-linecap="round" stroke-linejoin="round"/>
<path d="M228.667 66.998C248.53 64.4 264.127 65.895 280.095 66.845C280.361 63.32 278.265 62.267 275.981 60.647C264.583 57.491 252.454 57.006 240.841 59.244C236.463 60.087 228.879 63.256 228.667 66.998Z" fill="#ED9406" stroke="#1E2842" stroke-width="2" stroke-miterlimit="10" stroke-linecap="round" stroke-linejoin="round"/>
<path d="M158.173 108.583C160.056 113.297 162.111 117.621 164.189 121.004C177.319 106.024 189.475 92.277 203.695 80.719C217.916 69.161 234.431 59.792 253.413 56.419C251.053 53.245 245.52 48.847 239.415 44.746C227.083 36.461 211.286 34.7 197.349 40.036C189.211 43.152 181.538 47.263 174.572 52.29C156.661 65.213 150.083 88.33 158.173 108.583Z" fill="#F9D510"/>
<mask id="mask3_151_79" style="mask-type:luminance" maskUnits="userSpaceOnUse" x="154" y="36" width="100" height="86">
<path d="M158.173 108.583C160.056 113.297 162.111 117.621 164.189 121.004C177.319 106.024 189.475 92.277 203.695 80.719C217.916 69.161 234.431 59.792 253.413 56.419C251.053 53.245 245.52 48.847 239.415 44.746C227.083 36.461 211.286 34.7 197.349 40.036C189.211 43.152 181.538 47.263 174.572 52.29C156.661 65.213 150.083 88.33 158.173 108.583Z" fill="white"/>
</mask>
<g mask="url(#mask3_151_79)">
<path d="M162.834 133.944C154.542 126.187 149.135 115.63 146.626 104.556C144.118 93.482 144.696 81.526 146.656 70.342C153.879 68.874 161.555 69.73 168.277 72.753C174.998 75.777 180.796 81.352 184.488 87.731C195.255 76.745 208.778 68.482 223.466 63.914C211.147 81.548 197.933 99.148 184.321 115.805C178.475 122.958 172.56 130.179 165.238 135.812" fill="#ED9406"/>
</g>
<mask id="mask4_151_79" style="mask-type:luminance" maskUnits="userSpaceOnUse" x="154" y="36" width="100" height="86">
<path d="M158.173 108.583C160.056 113.297 162.111 117.621 164.189 121.004C177.319 106.024 189.475 92.277 203.695 80.719C217.916 69.161 234.431 59.792 253.413 56.419C251.053 53.245 245.52 48.847 239.415 44.746C227.083 36.461 211.286 34.7 197.349 40.036C189.211 43.152 181.538 47.263 174.572 52.29C156.661 65.213 150.083 88.33 158.173 108.583Z" fill="white"/>
</mask>
<g mask="url(#mask4_151_79)">
<path d="M168.701 55.575C175.944 51.508 183.586 48.03 191.672 46.126C199.758 44.222 208.331 43.941 216.328 46.191C224.324 48.442 231.698 53.354 236.149 60.368C245.576 57.178 254.969 55.688 264.907 56.242C254.444 40.408 235.279 30.987 216.308 31.532C197.337 32.076 179.066 42.248 167.898 57.593" fill="#FFED48"/>
</g>
<path d="M158.173 108.583C160.056 113.297 162.111 117.621 164.189 121.004C177.319 106.024 189.475 92.277 203.695 80.719C217.916 69.161 234.431 59.792 253.413 56.419C251.053 53.245 245.52 48.847 239.415 44.746C227.083 36.461 211.286 34.7 197.349 40.036C189.211 43.152 181.538 47.263 174.572 52.29C156.661 65.213 150.083 88.33 158.173 108.583Z" stroke="#1E2842" stroke-width="2" stroke-miterlimit="10" stroke-linecap="round" stroke-linejoin="round"/>
<path d="M182.539 100.624C192.055 87.774 203.077 76.648 216.285 64.997C219.824 61.875 224.1 59.712 228.685 58.596C239.451 55.973 254.752 55.779 265.5 56.751C268.732 57.044 272.026 57.512 274.905 59.01C277.784 60.508 280.211 63.221 280.095 66.846C274.36 60.409 245.959 59.461 237.871 65.341C231.556 69.932 225.688 77.431 220.892 83.591C216.095 89.751 211.053 95.982 204.32 99.934C197.586 103.886 188.629 104.464 182.539 100.624Z" fill="#F9D510" stroke="#1E2842" stroke-width="2" stroke-miterlimit="10" stroke-linecap="round" stroke-linejoin="round"/>
<path d="M202.106 106.938C209.733 105.016 218.038 105.487 226.032 107.875C221.746 102.742 214.839 99.638 208.178 100.27C206.023 101.725 204.253 103.679 202.106 106.938Z" fill="#375F99" stroke="#1E2842" stroke-width="2" stroke-miterlimit="10" stroke-linecap="round" stroke-linejoin="round"/>
<path d="M261.022 107.849C262.014 112.464 259.932 116.826 256.372 117.591C252.812 118.356 249.121 115.236 248.129 110.62C247.137 106.005 249.219 101.643 252.779 100.878C256.34 100.113 260.03 103.234 261.022 107.849Z" fill="#1E2842"/>
<path d="M257.676 105.762C258.005 107.291 257.123 108.778 255.705 109.083C254.288 109.388 252.872 108.395 252.544 106.865C252.215 105.335 253.097 103.849 254.515 103.544C255.932 103.239 257.347 104.232 257.676 105.762Z" fill="white"/>
<path d="M227.597 119.387C221.028 116.231 212.839 117.766 207.572 123.141" stroke="#1E2842" stroke-width="2" stroke-miterlimit="10" stroke-linecap="round" stroke-linejoin="round"/>
<path d="M244.787 102.928C244.273 107.717 244.275 111.254 247.047 115.655C248.517 115.711 249.981 115.917 251.595 116.426C253.54 117.04 254.777 118.966 254.548 120.992C254.422 122.109 254.17 123.211 253.797 124.271" stroke="#EF6C65" stroke-width="2" stroke-miterlimit="10" stroke-linecap="round" stroke-linejoin="round"/>
<path d="M257.736 80.532C251.63 82.475 246.8 87.737 245.705 94.241C250.023 88.842 256.954 85.42 264.045 85.187C262.903 82.85 260.575 81.078 257.736 80.532Z" fill="#375F99" stroke="#1E2842" stroke-width="2" stroke-miterlimit="10" stroke-linecap="round" stroke-linejoin="round"/>
<path d="M243.505 149.802C241.468 150.18 239.334 150.019 237.377 149.34" stroke="#EF6C65" stroke-width="2" stroke-miterlimit="10" stroke-linecap="round" stroke-linejoin="round"/>
<path d="M258.157 130.746C248.53 132.221 238.644 131.989 228.913 130.179C227.397 132.196 227.248 135.051 228.227 137.377C229.205 139.703 231.188 141.513 233.448 142.636C235.707 143.759 238.234 144.247 240.749 144.453C245.065 144.807 249.623 144.301 253.259 141.947C256.893 139.592 259.338 135.07 258.157 130.746Z" fill="white" stroke="#1E2842" stroke-width="2" stroke-miterlimit="10" stroke-linecap="round" stroke-linejoin="round"/>
<path d="M229.209 130.74C229.285 133.35 230.272 135.43 233.025 136.482C231.462 136.578 230.354 137.598 229.496 139.123C229.496 139.123 225.449 134.214 229.209 130.74Z" fill="#1E2842"/>
<path d="M257.972 131.086C257.293 133.581 256.31 135.708 253.976 136.199C255.114 136.587 255.868 137.349 255.581 139.124C255.581 139.124 259.017 135.897 257.972 131.086Z" fill="#1E2842"/>
</svg>
