<svg xmlns="http://www.w3.org/2000/svg" width="500" height="500" fill="none"><path fill="#F2FFFF" d="M313.524 383.803c-64.326 9.306-137.587 3.922-186.683-38.844-49.097-42.766-71.043-116.148-48.937-177.527 22.106-61.379 89.37-104.365 153.524-93.928 20.235 3.292 40.8 12.31 51.891 29.623 9.755 15.227 12.441 36.635 28.368 45.121 18.376 9.79 39.863-4.743 60.554-6.895 16.843-1.751 33.897 5.27 46.407 16.73 12.51 11.461 20.795 26.998 25.839 43.232 12.956 41.701 4.531 89.495-21.895 124.193-26.425 34.699-67.186 52.236-109.068 58.295Z"/><path fill="#ABD4ED" d="M255.853 473.319c86.903 0 157.352-10.934 157.352-24.421s-70.449-24.421-157.352-24.421-157.352 10.934-157.352 24.421 70.449 24.421 157.352 24.421Z"/><path fill="#FF911F" d="M142.837 243.134s-1.927-6.696.256-14.149c2.182-7.452 32.069-43.371 50.659-55.277 18.59-11.907 39.381-14.547 39.381-14.547s36.779-3.933 50.055 1.592c13.276 5.525 30.23 27.98 30.23 27.98 9.113 16.01 19.457 27.341 13.229 38.849-4.535 8.38-14.97 11.682-23.735 7.944-5.711-2.436-10.96-5.968-15.975-10.055l-74.442 5.433-6.216-6.594-16.566 16.063-46.876 2.761Z"/><mask id="a" width="187" height="87" x="142" y="157" maskUnits="userSpaceOnUse" style="mask-type:luminance"><path fill="#fff" d="M142.837 243.134s-1.927-6.696.256-14.149c2.182-7.452 32.069-43.371 50.659-55.277 18.59-11.907 39.381-14.547 39.381-14.547s36.779-3.933 50.055 1.592c13.276 5.525 30.23 27.98 30.23 27.98 9.113 16.01 19.457 27.341 13.229 38.849-4.535 8.38-14.97 11.682-23.735 7.944-5.711-2.436-10.96-5.968-15.975-10.055l-74.442 5.433-6.216-6.594-16.566 16.063-46.876 2.761Z"/></mask><g fill="#FFC248" mask="url(#a)"><path d="M276.063 155.982c5.872 4.593 10.198 10.445 11.107 17.845 8.416 4.936 15.105 12.897 20.999 20.673.662-2.814 2.288-5.274 3.783-7.748s2.644-5.5 1.648-8.214c-.393-1.071-1.091-1.999-1.781-2.909-4.293-5.664-8.723-11.392-14.556-15.453-5.833-4.061-13.387-6.267-20.164-4.126M191.139 173.045a14.958 14.958 0 0 1 3.154 7.188c-12.706 8.637-24.088 19.456-32.899 32.654 3.341 1.024 6.149 2.83 9.036 4.798-4.116-1.165-6.847-1.286-11.112-.964-8.233.62-12.37 12.656-11.961 20.902-3.38 3.106-6.836 6.27-10.216 9.376.88-13.192 2.654-26.775 9.397-38.147 4.915-8.29 12.172-14.89 19.319-21.356 3.597-3.255 7.225-6.532 11.391-9.019 4.165-2.487 8.956-4.16 13.8-3.9"/></g><path stroke="#1E2842" stroke-linecap="round" stroke-linejoin="round" stroke-miterlimit="10" stroke-width="2" d="M142.837 243.134s-1.927-6.696.256-14.149c2.182-7.452 32.069-43.371 50.659-55.277 18.59-11.907 39.381-14.547 39.381-14.547s36.779-3.933 50.055 1.592c13.276 5.525 30.23 27.98 30.23 27.98 9.113 16.01 19.457 27.341 13.229 38.849-4.535 8.38-14.97 11.682-23.735 7.944-5.711-2.436-10.96-5.968-15.975-10.055l-74.442 5.433-6.216-6.594-16.566 16.063-46.876 2.761Z"/><path stroke="#1E2842" stroke-linecap="round" stroke-linejoin="round" stroke-miterlimit="10" stroke-width="2" d="M246.812 175.881c3.401 8.75 5.822 17.501 7.263 26.251M192.642 190.774c8.647 7.346 13.871 18.564 13.93 29.91M188.022 230.172a29.809 29.809 0 0 0-14.451-10.127"/><path fill="#F9D510" stroke="#1E2842" stroke-linecap="round" stroke-linejoin="round" stroke-miterlimit="10" stroke-width="2" d="M274.951 181.133c-6.437 0-11.654 5.216-11.654 11.654 0 6.437 5.216 11.654 11.654 11.654 6.437 0 11.654-5.216 11.654-11.654 0-6.437-5.216-11.654-11.654-11.654Zm0 17.838a6.178 6.178 0 0 1-6.183-6.183 6.176 6.176 0 0 1 6.183-6.174 6.175 6.175 0 0 1 6.174 6.174 6.176 6.176 0 0 1-6.174 6.183Z"/><path fill="#5187F5" stroke="#1E2842" stroke-linecap="round" stroke-linejoin="round" stroke-miterlimit="10" stroke-width="2" d="m265.896 181.24 9.488 6.951 8.769-5.018c-1.049-11.154-3.419-18.587-7.586-25.75-4.565-1.721-11.724-2.042-17.388-1.11 3.476 9.625 5.814 15.917 6.717 24.927Z"/><path fill="#F9D510" stroke="#1E2842" stroke-linecap="round" stroke-linejoin="round" stroke-miterlimit="10" stroke-width="2" d="M224.359 187.474c-6.437 0-11.654 5.216-11.654 11.654 0 6.437 5.216 11.654 11.654 11.654 6.437 0 11.654-5.216 11.654-11.654-.001-6.438-5.217-11.654-11.654-11.654Zm0 17.837a6.178 6.178 0 0 1-6.183-6.183 6.176 6.176 0 0 1 6.183-6.174 6.174 6.174 0 0 1 6.174 6.174 6.177 6.177 0 0 1-6.174 6.183Z"/><path fill="#5187F5" stroke="#1E2842" stroke-linecap="round" stroke-linejoin="round" stroke-miterlimit="10" stroke-width="2" d="m211.586 193.775 11.813 1.419 5.231-9.023c-6.468-9.537-13.108-17.903-20.338-22.239-5.486 1.012-10.934 3.762-16.351 7.949 7.845 6.914 14.371 14.219 19.645 21.894Z"/><path fill="#5187F5" d="M174.119 406.251c6.746-44.663 20.495-93.543 36.097-130.876.339-4.9.626-7.968.914-11.036-1.331-12.117-3.172-21.94-5.013-31.762 7.062-10.413 9.809-20.541 9.747-30.665 22.073-7.261 44.336-10.501 66.543-9.336 4.641 5.467 8.198 11.851 11.381 20.159.202 11.129-.195 22.268-1.006 35.001.873 2.529 1.5 5.068 2.635 7.3 15.504 3.912 33.2 9.834 47.486 19.91 9.047 6.381 11.752 18.665 7.473 28.876-6.251 14.918-14.64 34.731-20.882 50.551-14.77 6.61-32.522 8.306-45.96 8.281 3.685-17.857 9.88-38.328 16.267-55.061-12.346-.669-25.228-1.585-39.811-2.557-11.785 22.211-38.13 89.078-44.829 111.959-15.004-.715-29.547-3.387-41.042-10.744Z"/><mask id="b" width="179" height="225" x="174" y="192" maskUnits="userSpaceOnUse" style="mask-type:luminance"><path fill="#fff" d="M174.119 406.251c6.746-44.663 20.495-93.543 36.097-130.876.339-4.9.626-7.968.914-11.036-1.331-12.117-3.172-21.94-5.013-31.762 7.062-10.413 9.809-20.541 9.747-30.665 22.073-7.261 44.336-10.501 66.543-9.336 4.641 5.467 8.198 11.851 11.381 20.159.202 11.129-.195 22.268-1.006 35.001.873 2.529 1.5 5.068 2.635 7.3 15.504 3.912 33.2 9.834 47.486 19.91 9.047 6.381 11.752 18.665 7.473 28.876-6.251 14.918-14.64 34.731-20.882 50.551-14.77 6.61-32.522 8.306-45.96 8.281 3.685-17.857 9.88-38.328 16.267-55.061-12.346-.669-25.228-1.585-39.811-2.557-11.785 22.211-38.13 89.078-44.829 111.959-15.004-.715-29.547-3.387-41.042-10.744Z"/></mask><g mask="url(#b)"><path fill="#85BEFF" d="M301.346 254.888c-.492 3.12-2.553 5.79-4.949 7.847-2.396 2.058-5.163 3.634-7.687 5.532-3.699 2.782-7.013 6.333-11.417 7.754 9.24-1.079 18.117-4.21 25.931-9.258 9.263 2.565 18.713 6.567 27.095 11.273 3.349 1.881 6.639 3.948 9.362 6.658 1.804 1.796 3.352 3.903 4.377 6.222 1.243 2.816 3.87 4.789 6.892 5.379 1.934.378 3.901.569 5.914.544-.098-12.788-5.93-25.853-15.815-33.967-9.885-8.114-23.439-11.567-36.001-9.17"/></g><mask id="c" width="179" height="225" x="174" y="192" maskUnits="userSpaceOnUse" style="mask-type:luminance"><path fill="#fff" d="M174.119 406.251c6.746-44.663 20.495-93.543 36.097-130.876.339-4.9.626-7.968.914-11.036-1.331-12.117-3.172-21.94-5.013-31.762 7.062-10.413 9.809-20.541 9.747-30.665 22.073-7.261 44.336-10.501 66.543-9.336 4.641 5.467 8.198 11.851 11.381 20.159.202 11.129-.195 22.268-1.006 35.001.873 2.529 1.5 5.068 2.635 7.3 15.504 3.912 33.2 9.834 47.486 19.91 9.047 6.381 11.752 18.665 7.473 28.876-6.251 14.918-14.64 34.731-20.882 50.551-14.77 6.61-32.522 8.306-45.96 8.281 3.685-17.857 9.88-38.328 16.267-55.061-12.346-.669-25.228-1.585-39.811-2.557-11.785 22.211-38.13 89.078-44.829 111.959-15.004-.715-29.547-3.387-41.042-10.744Z"/></mask><g mask="url(#c)"><path fill="#85BEFF" d="M339.164 281.171c2.942 5.885 7.697 12.215-2.878 37.915-4.637 11.268-8.65 21.691-8.65 34.075 5.734.243 5.21-.909 10.944-.666 5.318-15.478 10.637-30.958 15.591-46.547 1.25-3.932 2.485-7.924 2.641-12.031.155-4.107-.883-8.407-3.71-11.503s-7.664-4.673-11.629-3.087"/></g><path stroke="#1E2842" stroke-linecap="round" stroke-linejoin="round" stroke-miterlimit="10" stroke-width="2" d="M174.119 406.251c6.746-44.663 20.495-93.543 36.097-130.876.339-4.9.626-7.968.914-11.036-1.331-12.117-3.172-21.94-5.013-31.762 7.062-10.413 9.809-20.541 9.747-30.665 22.073-7.261 44.336-10.501 66.543-9.336 4.641 5.467 8.198 11.851 11.381 20.159.202 11.129-.195 22.268-1.006 35.001.873 2.529 1.5 5.068 2.635 7.3 15.504 3.912 33.2 9.834 47.486 19.91 9.047 6.381 11.752 18.665 7.473 28.876-6.251 14.918-14.64 34.731-20.882 50.551-14.77 6.61-32.522 8.306-45.96 8.281 3.685-17.857 9.88-38.328 16.267-55.061-12.346-.669-25.228-1.585-39.811-2.557-11.785 22.211-38.13 89.078-44.829 111.959-15.004-.715-29.547-3.387-41.042-10.744Z"/><path stroke="#1E2842" stroke-linecap="round" stroke-linejoin="round" stroke-miterlimit="10" stroke-width="2" d="M292.784 247.736c-20.284 7.112-48.583 8.541-79.45 8.149M295.418 255.037c-20.284 7.112-48.583 9.655-79.45 9.263"/><path fill="#5187F5" stroke="#1E2842" stroke-linecap="round" stroke-linejoin="round" stroke-miterlimit="10" stroke-width="2" d="M233.87 216.214c16.144-4.643 31.594-6.416 46.352-6.117 2.025 7.781 2.966 14.215 2.47 20.443-4.707 5.539-11.375 9.575-20.226 11.939-7.452.117-15.157-1.658-23.028-4.672-2.672-6.146-4.373-13.544-5.568-21.593Z"/><path stroke="#1E2842" stroke-linecap="round" stroke-linejoin="round" stroke-miterlimit="10" stroke-width="2" d="M263.625 262.896c3.398 12.766 2.519 28.721-3.633 42.141"/><path stroke="#1E2842" stroke-linecap="round" stroke-linejoin="round" stroke-miterlimit="10" stroke-width="2" d="M273.517 261.213c2.823 8.645 4.3 16.847 2.538 23.983-3.719 3.755-7.644 6.175-11.722 7.572"/><path stroke="#1E2842" stroke-linecap="round" stroke-linejoin="round" stroke-miterlimit="10" stroke-width="2" d="M234.789 292.115c23.877-4.771 45.005-14.291 62.185-30.629M302.021 307.523a32.805 32.805 0 0 0 13.013.454M302.601 310.769c1.322 4.583 5.128 8.366 9.719 9.659"/><path fill="#1D324F" stroke="#1E2842" stroke-linecap="round" stroke-linejoin="round" stroke-miterlimit="10" stroke-width="2" d="M208.197 429.319c-1.035 5.207-.273 11.273-.957 17.817a38.34 38.34 0 0 1-.967 5.558 8.3 8.3 0 0 1-3.634 4.953c-12.435 7.746-31.239 6.174-38.692-4.015a7.509 7.509 0 0 1-1.397-3.712 18.664 18.664 0 0 1 .059-4.132c.801-6.496 4.874-11.781 8.704-18.677l10.491-5.128 26.393 7.336Z"/><path fill="#628DA0" stroke="#1E2842" stroke-linecap="round" stroke-linejoin="round" stroke-miterlimit="10" stroke-width="2" d="M207.24 447.137a38.34 38.34 0 0 1-.967 5.558 8.3 8.3 0 0 1-3.634 4.953c-12.435 7.746-31.239 6.174-38.692-4.015a7.509 7.509 0 0 1-1.397-3.712 18.664 18.664 0 0 1 .059-4.132c1.485 1.749 3.292 3.233 5.265 4.406 3.458 2.061 7.404 3.214 11.39 3.741 9.738 1.279 19.888-1.261 27.976-6.799Z"/><path fill="#5187F5" stroke="#1E2842" stroke-linecap="round" stroke-linejoin="round" stroke-miterlimit="10" stroke-width="2" d="M177.008 404.07c12.099 3.648 26.189 6.04 38.248 5.667 2.159-.067 4.012 1.568 4.249 3.714.95 8.586-1.107 15.98-6.648 19.13-15.336 3.125-28.847-13.793-44.124-2.364-3.292-1.336-3.018-7.99 0-10.7-.229-3.632-.139-7.926 1.107-11.713.978-2.972 4.172-4.638 7.168-3.734Z"/><path fill="#FF911F" stroke="#1E2842" stroke-linecap="round" stroke-linejoin="round" stroke-miterlimit="10" stroke-width="2" d="M327.968 181.943c-1.29-2.063-4.599-3.582-8.053-4.348-3.58-.794-7.358.53-9.509 3.261-9.885 12.55-12.666 28.292-6.668 41.903 1.963 4.454 4.9 6.387 9.12 6.177.82-.041 1.646-.159 2.492-.36 10.395 5.421 21.972 2.314 19.561-15.229l-6.943-31.404Z"/><path fill="#FDBBAA" stroke="#1E2842" stroke-linecap="round" stroke-linejoin="round" stroke-miterlimit="10" stroke-width="2" d="M330.242 170.729c-2.081 3.065-8.282 11.034-11.506 12.024-11.391 23.375-4.385 39.818 10.991 40.389 9.146-13.185 16.458-28.309 21.548-43.498l-21.033-8.915Z"/><path fill="#F9D510" d="M350.367 124.91c-3.574-4.633-5.629-10.406-5.861-16.248-.118-2.975-3.156-4.921-5.86-3.674a8.239 8.239 0 0 0-1.398.818c-2.082 1.519-3.387 3.953-3.857 6.487-.47 2.534-.16 5.163.531 7.646.69 2.483 1.751 4.844 2.808 7.194"/><path stroke="#1E2842" stroke-linecap="round" stroke-linejoin="round" stroke-miterlimit="10" stroke-width="2" d="M350.367 124.91c-3.574-4.633-5.629-10.406-5.861-16.248-.118-2.975-3.156-4.921-5.86-3.674a8.239 8.239 0 0 0-1.398.818c-2.082 1.519-3.387 3.953-3.857 6.487-.47 2.534-.16 5.163.531 7.646.69 2.483 1.751 4.844 2.808 7.194"/><path fill="#F9D510" d="M331.82 152.863a40.248 40.248 0 0 0-8.907 10.606c8.821 24.411 21.553 30.188 39.006 13.475l-1.507-21.412"/><path stroke="#1E2842" stroke-linecap="round" stroke-linejoin="round" stroke-miterlimit="10" stroke-width="2" d="M331.82 152.863a40.248 40.248 0 0 0-8.907 10.606c8.821 24.411 21.553 30.188 39.006 13.475l-1.507-21.412"/><path fill="#F9D510" d="M358.445 168.383c3.722-8.781 4.775-23.005 3.018-34.457-.688-4.487-3.945-8.202-8.328-9.382-6.445-1.735-13.188-1.085-18.88 1.483-2.553 1.152-4.515 3.443-4.984 6.204-.437 2.577.44 5.125 3.343 6.936-4.497 1.987-4.572 8.124-.765 10.084-3.864 2.572-3.109 6.832.075 10.042-6.003 5.073 1.649 12.157 12.165 11.337"/><path stroke="#1E2842" stroke-linecap="round" stroke-linejoin="round" stroke-miterlimit="10" stroke-width="2" d="M358.445 168.383c3.722-8.781 4.775-23.005 3.018-34.457-.688-4.487-3.945-8.202-8.328-9.382-6.445-1.735-13.188-1.085-18.88 1.483-2.553 1.152-4.515 3.443-4.984 6.204-.437 2.577.44 5.125 3.343 6.936-4.497 1.987-4.572 8.124-.765 10.084-3.864 2.572-3.109 6.832.075 10.042-6.003 5.073 1.649 12.157 12.165 11.337"/><path fill="#F9D510" d="M332.615 139.167c5.182-2.614 10.487-2.91 15.29-.905Z"/><path stroke="#1E2842" stroke-linecap="round" stroke-linejoin="round" stroke-miterlimit="10" stroke-width="2" d="M332.615 139.167c5.182-2.614 10.487-2.91 15.29-.905"/><path fill="#F9D510" d="M332.144 149.251c5.182-2.614 10.487-2.91 15.29-.905Z"/><path stroke="#1E2842" stroke-linecap="round" stroke-linejoin="round" stroke-miterlimit="10" stroke-width="2" d="M332.144 149.251c5.182-2.614 10.487-2.91 15.29-.905"/><path fill="#F9D510" d="M332.144 159.161c5.182-2.614 10.487-2.91 15.29-.905Z"/><path stroke="#1E2842" stroke-linecap="round" stroke-linejoin="round" stroke-miterlimit="10" stroke-width="2" d="M332.144 159.161c5.182-2.614 10.487-2.91 15.29-.905"/><path fill="#FF911F" stroke="#1E2842" stroke-linecap="round" stroke-linejoin="round" stroke-miterlimit="10" stroke-width="2" d="M192.822 246.424c-.123-3.137-.67-6.155-1.783-9.016-.999-2.566-3.19-4.542-5.868-5.369-15.211-4.697-29.133-3.495-41.488 4.885-3.237 2.196-5.078 5.903-4.686 9.736.321 3.134 1.32 6.21 3.053 9.221-.616 12.277 6.457 13.392 19.448 9.255l31.324-18.712Z"/><path fill="#FDBBAA" stroke="#1E2842" stroke-linecap="round" stroke-linejoin="round" stroke-miterlimit="10" stroke-width="2" d="M192.822 245.128c-17.559-6.046-31.129 1.716-42.641 16.605 10.134 5.03 21.379 7.35 33.752 6.924l8.889-23.529Z"/><path fill="#F9D510" d="M205.159 246.214c-3.458-3.186-7.494-5.04-11.981-5.853-13.68 9.739-15.737 23.113-8.877 39.178 5.67.686 10.934-.029 15.816-2.058"/><path stroke="#1E2842" stroke-linecap="round" stroke-linejoin="round" stroke-miterlimit="10" stroke-width="2" d="M205.159 246.214c-3.458-3.186-7.494-5.04-11.981-5.853-13.68 9.739-15.737 23.113-8.877 39.178 5.67.686 10.934-.029 15.816-2.058"/><path fill="#F9D510" d="M199.236 248.465s8.229-11.359 14.307-15.137c6.078-3.778 22.073-3.182 21.186 1.881-.886 5.063-9.821 5.205-11.534 5.879-1.713.674-2.625 2.412-2.625 2.412s3.808.267 7.44 1.785c6.181 2.583 16.377 16.517 5.123 16.447 1.467 1.671 4.486 9.395-3.841 7.416 1.101 1.626 2.991 6.763-3.916 6.271-6.414-.457-10.394-1.839-10.394-1.839s-11.318 7.839-21.23 1.074"/><path stroke="#1E2842" stroke-linecap="round" stroke-linejoin="round" stroke-miterlimit="10" stroke-width="2" d="M199.236 248.465s8.229-11.359 14.307-15.137c6.078-3.778 22.073-3.182 21.186 1.881-.886 5.063-9.821 5.205-11.534 5.879-1.713.674-2.625 2.412-2.625 2.412s3.808.267 7.44 1.785c6.181 2.583 16.377 16.517 5.123 16.447 1.467 1.671 4.486 9.395-3.841 7.416 1.101 1.626 2.991 6.763-3.916 6.271-6.414-.457-10.394-1.839-10.394-1.839s-11.318 7.839-21.23 1.074"/><path fill="#F9D510" d="M233.134 261.732c-3.812-5.144-10.617-7.935-18.402-9.955Z"/><path stroke="#1E2842" stroke-linecap="round" stroke-linejoin="round" stroke-miterlimit="10" stroke-width="2" d="M233.134 261.732c-3.812-5.144-10.617-7.935-18.402-9.955"/><path fill="#F9D510" d="M229.111 268.995c-3.545-4.695-10.481-6.467-17.777-7.717Z"/><path stroke="#1E2842" stroke-linecap="round" stroke-linejoin="round" stroke-miterlimit="10" stroke-width="2" d="M229.111 268.995c-3.545-4.695-10.481-6.467-17.777-7.717M220.57 243.5l-5.246.184"/><path fill="#AECCD4" stroke="#1E2842" stroke-linecap="round" stroke-linejoin="round" stroke-miterlimit="10" stroke-width="2" d="M262.625 368.967c-3.531-3.787-7.061-7.574-11.22-11.571-2.335 6.81-.402 14.889 4.763 19.904 2.261-2.256 4.522-4.513 6.457-8.333Z"/><path fill="#AECCD4" stroke="#1E2842" stroke-linecap="round" stroke-linejoin="round" stroke-miterlimit="10" stroke-width="2" d="m282.166 444.489-18.506-55.59c-4.562-3.919-9.36-7.66-14.158-11.401 5.337-5.666 9.939-10.014 14.541-14.362-2.427-4.078-5.22-7.592-8.013-11.105a18.048 18.048 0 0 1 13.892 4.157c3.187 2.702 4.632 6.924 4.041 11.06-.663 4.637-1.23 9.201-1.789 13.757a6.916 6.916 0 0 0 .282 2.966c6.218 19.263 13.542 37.568 22.034 56.467-2.031 3.605-6.179 5.906-12.324 4.051Z"/><path fill="#AECCD4" stroke="#1E2842" stroke-linecap="round" stroke-linejoin="round" stroke-miterlimit="10" stroke-width="2" d="m267.754 373.742-3.621 3.621a2.941 2.941 0 0 1-4.16 0l-.25-.25a2.942 2.942 0 0 1 0-4.161l3.621-3.621a2.941 2.941 0 0 1 4.16 0l.25.25a2.942 2.942 0 0 1 0 4.161Z"/><path fill="#FF6464" stroke="#1E2842" stroke-linecap="round" stroke-linejoin="round" stroke-miterlimit="10" stroke-width="2" d="m360.426 369.538-31.028 26.04 5.533 31.539 50.87-8.249 5.917-15.649-31.292-33.681Z"/><path fill="#EDD88A" stroke="#1E2842" stroke-linecap="round" stroke-linejoin="round" stroke-miterlimit="10" stroke-width="2" d="M275.523 385.977c15.644-2.183 66.223-8.07 81.737-9.867a4.096 4.096 0 0 1 4.567 4.072 4.099 4.099 0 0 1-3.581 4.066l-81.479 10.373a4.1 4.1 0 0 1-4.453-2.919l-.151-.519c-.7-2.4.885-4.861 3.36-5.206Z"/><path fill="#C1A056" stroke="#1E2842" stroke-linecap="round" stroke-linejoin="round" stroke-miterlimit="10" stroke-width="2" d="m334.468 394.654-.243 25.954-46.618 5.453-6.182-25.693 53.043-5.714Z"/><path fill="#1D324F" stroke="#1E2842" stroke-linecap="round" stroke-linejoin="round" stroke-miterlimit="10" stroke-width="2" d="M346.4 390.763c-6.838.527-13.773.44-20.797-.215a38.604 38.604 0 0 1-12.797-3.468l-5.998-2.803-4.728 1.963c-7.678-.264-14.096-2.491-19.947-5.578l1.358-7.639.02-.127 46.8-13.412 4.21 5.392 3.751 3.302 4.874 2.755c4.249 2.413 7.258 6.516 8.245 11.273l.273 1.27.059.283c.714 3.449-1.787 6.741-5.323 7.004Z"/><path fill="#628DA0" stroke="#1E2842" stroke-linecap="round" stroke-linejoin="round" stroke-miterlimit="10" stroke-width="2" d="M346.4 390.763c-6.838.527-13.773.44-20.797-.215a38.604 38.604 0 0 1-12.797-3.468l-5.998-2.803-4.728 1.963c-7.678-.264-14.096-2.491-19.947-5.578l1.358-7.639c6.004 3.647 12.095 6.745 18.697 6.633l8.528-3.946c11.635 6.901 25.108 9.868 40.949 7.766l.059.283c.713 3.449-1.788 6.741-5.324 7.004Z"/><path fill="#5187F5" stroke="#1E2842" stroke-linecap="round" stroke-linejoin="round" stroke-miterlimit="10" stroke-width="2" d="M285.178 355.222c11.305.805 31.046-11.807 47.586-6.564 2.21 1.658 2.734 6.669.867 9.872 3.054.524 3.175 4.378.837 5.728-9.919-3.845-39.987 17.367-52.027 12.034-3.289-1.457-4.715-6.896-.835-9.756-1.283-4.206-.333-9.189 3.572-11.314Z"/><path fill="#F42F4C" stroke="#1E2842" stroke-linecap="round" stroke-linejoin="round" stroke-miterlimit="10" stroke-width="2" d="m392.868 404.693-8.449 33.623-86.724 19.585-50.454-7.756-2.637-38.184 24.655-32.079 1.026-.049 5.578-.284 28.992 33.994 3.155 3.703 76.907-11.664-24.753-36.045 5.773-.899 26.931 36.055Z"/><path fill="#FF6464" stroke="#1E2842" stroke-linecap="round" stroke-linejoin="round" stroke-miterlimit="10" stroke-width="2" d="m300.752 418.77-3.057 39.132-50.454-7.756-2.637-38.184 24.655-32.079 1.026-.049 30.467 38.936Z"/><path fill="#AECCD4" stroke="#1E2842" stroke-linecap="round" stroke-linejoin="round" stroke-miterlimit="10" stroke-width="2" d="m303.685 401.787 11.729 32.404-.758 2.847 2.522 3.379 3.823-1.278-.371-3.797-1.917-1.919-9.725-32.954-5.303 1.318Z"/><path fill="#F9D510" stroke="#1E2842" stroke-linecap="round" stroke-linejoin="round" stroke-miterlimit="10" stroke-width="2" d="M311.192 398.388c.681 2.327-1.795 3.112-4.91 3.877-3.115.765-5.687 1.221-6.368-1.106-.395-1.349.097-2.763 1.188-3.858-3.48-4.165-7.279-11.925-8.933-17.579-2.456-8.396.027-11.416 3.901-12.368 3.875-.952 7.672.526 10.128 8.921 1.654 5.654 2.6 14.115 1.859 19.317 1.544.447 2.741 1.447 3.135 2.796Z"/><path fill="#1E2842" d="M301.857 377.461c1.274 4.356 4.786 20.695 3.327 21.053-1.459.358-7.335-15.4-8.609-19.755-1.274-4.356-.433-5.813 1.026-6.172s2.982.518 4.256 4.874Z"/><path fill="#1E2842" d="M307.576 399.437c.586 1.827-.405 1.858-1.498 2.126-1.093.269-1.934.647-2.46-1.154-.584-1.997-.172-3.834.922-4.103 1.092-.268 2.399 1.147 3.036 3.131Z"/><path fill="#AECCD4" stroke="#1E2842" stroke-linecap="round" stroke-linejoin="round" stroke-miterlimit="10" stroke-width="2" d="m375.567 361.512-3.98 11.793c-6.02 2.59-10.227 1.272-12.589-4.045l3.589-10.926s-9.293 5.242-10.15 14.982c-.29 3.297 1.38 6.098 3.978 8.036l-17.633 49.663c3.43.099 6.917.412 10.156 1.38l17.117-48.21c3.25-.162 6.423-1.42 8.635-4.087 6.916-8.326.877-18.586.877-18.586Z"/><path fill="#6295EF" stroke="#1E2842" stroke-linecap="round" stroke-linejoin="round" stroke-miterlimit="10" stroke-width="2" d="M350.912 402.742a5.396 5.396 0 0 1-5.629-.427l-9.142-6.604-1.063 6.388-3.742-.623-6.06 41.29-6.89 1.519 8.125-43.613-.256-.042-1.992-1.305a3.786 3.786 0 0 1-1.656-3.782c-3.086 2.298-7.113 2.832-9.904 1.224l2.017-12.114c3.72-.076 5.549 1.372 8.953 4.487l.598-3.314 13.089 1.916-.305 1.834c-.033.195 3.435 3.491 6.912 6.727a873.376 873.376 0 0 0 6.945 6.439Z"/><path fill="#1D324F" stroke="#1E2842" stroke-linecap="round" stroke-linejoin="round" stroke-miterlimit="10" stroke-width="2" d="m412.166 382.651-2.489 2.91-14.067-12.036-31.082 36.329-4.339-3.712 31.082-36.329-8.258-7.065 4.98-5.82 15.958 13.653 8.215 12.07Z"/><path fill="#F9D510" stroke="#1E2842" stroke-linecap="round" stroke-linejoin="round" stroke-miterlimit="10" stroke-width="2" d="m341.729 434.834-2.686-2.298a4.62 4.62 0 0 1-.507-6.514l21.133-24.7a4.62 4.62 0 0 1 6.514-.507l2.686 2.298a4.62 4.62 0 0 1 .507 6.514l-21.133 24.7a4.62 4.62 0 0 1-6.514.507Z"/><path fill="#EDD88A" stroke="#1E2842" stroke-linecap="round" stroke-linejoin="round" stroke-miterlimit="10" stroke-width="2" d="m384.917 405.582-76.907 11.664-3.155-3.703 69.786-9.827 10.276 1.866Z"/><path fill="#EDD88A" stroke="#1E2842" stroke-linecap="round" stroke-linejoin="round" stroke-miterlimit="10" stroke-width="2" d="m384.917 405.582-5.744 27.371-73.077 15.698 1.338-21.999.576-9.406 76.907-11.664Z"/><path fill="#FF911F" d="M247.795 174.223v-19.281c4.852-.528 6.039-.857 8.577-.325 6.252 1.199 9.998 8.374 13.873 17.919-7.854-3.568-14.291-4.219-18.186 1.028"/><path stroke="#1E2842" stroke-linecap="round" stroke-linejoin="round" stroke-miterlimit="10" stroke-width="2" d="M247.795 174.223v-19.281c4.852-.528 6.039-.857 8.577-.325 6.252 1.199 9.998 8.374 13.873 17.919-7.854-3.568-14.291-4.219-18.186 1.028"/><path fill="#FDBBAA" stroke="#1E2842" stroke-linecap="round" stroke-linejoin="round" stroke-miterlimit="10" stroke-width="2" d="M222.209 152.863c.542 3.162.616 6.391.305 10.605 6.485 3.747 14.049 11.824 24.299 12.414 2.801-3.641 3.737-10.971 3.405-15.303-1.909-2.062-3.067-4.692-3.253-7.385-8.454.304-16.94-.142-24.756-.331Z"/><path fill="#FF911F" d="M246.219 175.973c-10.76-1.563-20.005-9.555-24.21-18.681a26.038 26.038 0 0 0-3.789.353c-5.349.917-8.558 5.957-6.874 10.674l8.696 16.335c5.791-8.974 9.128-10.284 18.555-7.347"/><path stroke="#1E2842" stroke-linecap="round" stroke-linejoin="round" stroke-miterlimit="10" stroke-width="2" d="M246.219 175.973c-10.76-1.563-20.005-9.555-24.21-18.681a26.038 26.038 0 0 0-3.789.353c-5.349.917-8.558 5.957-6.874 10.674l8.696 16.335c5.791-8.974 9.128-10.284 18.555-7.347"/><path fill="#FDBBAA" d="M257.884 106.964c1.892-7.31 9.983-12.597 17.229-11 6.026 1.327 8.88 7.517 7.95 13.446-1.205 7.684-8.359 12.349-14.82 15.333"/><path stroke="#1E2842" stroke-linecap="round" stroke-linejoin="round" stroke-miterlimit="10" stroke-width="2" d="M257.884 106.964c1.892-7.31 9.983-12.597 17.229-11 6.026 1.327 8.88 7.517 7.95 13.446-1.205 7.684-8.359 12.349-14.82 15.333"/><path fill="#375F99" stroke="#1E2842" stroke-linecap="round" stroke-linejoin="round" stroke-miterlimit="10" stroke-width="2" d="M259.316 62.014c10.36 11.325 13.054 33.1 7.38 47.361-3.604-13.651-9.138-31.055-17.214-42.635 1.805-1.715 4.003-3.014 9.834-4.726Z"/><path fill="#FDBBAA" stroke="#1E2842" stroke-linecap="round" stroke-linejoin="round" stroke-miterlimit="10" stroke-width="2" d="M196.136 143.407s-28.848-21.243-31.246-38.43c-2.398-17.187 5.424-35.413 19.534-45.515 8.73-6.25 19.43-9.413 30.143-10.118 15.21-1.002 28.809 1.614 38.846 13.087 10.153 11.605 14.922 29.762 16.321 46.618 7.252 6.832 7.515 18.568 3.018 27.459-3.215 6.357-12.032 13.626-19.009 17.769-4.967 2.95-11.212 4.015-16.961 3.452-25.479-2.499-40.646-14.322-40.646-14.322Z"/><path fill="#375F99" stroke="#1E2842" stroke-linecap="round" stroke-linejoin="round" stroke-miterlimit="10" stroke-width="2" d="m189.235 131.242-.476-16.638c2.352-9.635 2.804-19.297 1.288-28.777-8.491 7.45-16.982 14.901-26.045 23.215 1.838 6.738.733 14.224-2.973 20.143 2.326 1.406 5.419 1.436 7.968.226 1.137 3.814 3.508 7.249 6.624 9.72 4.4-3.17 8.942-6.141 13.614-7.889Z"/><path fill="#FDBBAA" d="M190.119 126.721c-8.21-2.336-15.847 1.697-16.955 7.684-.945 5.105.136 10.457 4.237 13.91 4.017 3.382 9.681 4.318 14.519 2.239 3.08-1.323 5.813-3.388 8.182-5.734"/><path stroke="#1E2842" stroke-linecap="round" stroke-linejoin="round" stroke-miterlimit="10" stroke-width="2" d="M190.119 126.721c-8.21-2.336-15.847 1.697-16.955 7.684-.945 5.105.136 10.457 4.237 13.91 4.017 3.382 9.681 4.318 14.519 2.239 3.08-1.323 5.813-3.388 8.182-5.734"/><path fill="#F9D510" stroke="#1E2842" stroke-linecap="round" stroke-linejoin="round" stroke-miterlimit="10" stroke-width="2" d="M178.773 54.271a5.44 5.44 0 1 0 0-10.88 5.44 5.44 0 0 0 0 10.88Z"/><path fill="#ED9406" stroke="#1E2842" stroke-linecap="round" stroke-linejoin="round" stroke-miterlimit="10" stroke-width="2" d="M228.667 66.998c19.863-2.598 35.46-1.103 51.428-.153.266-3.525-1.83-4.578-4.114-6.198a77.381 77.381 0 0 0-35.14-1.403c-4.378.843-11.962 4.012-12.174 7.754Z"/><path fill="#F9D510" d="M158.173 108.583c1.883 4.714 3.938 9.038 6.016 12.421 13.13-14.98 25.286-28.727 39.506-40.285 14.221-11.558 30.736-20.927 49.718-24.3-2.36-3.174-7.893-7.572-13.998-11.673-12.332-8.285-28.129-10.046-42.066-4.71-8.138 3.116-15.811 7.227-22.777 12.254-17.911 12.923-24.489 36.04-16.399 56.293Z"/><mask id="d" width="100" height="86" x="154" y="36" maskUnits="userSpaceOnUse" style="mask-type:luminance"><path fill="#fff" d="M158.173 108.583c1.883 4.714 3.938 9.038 6.016 12.421 13.13-14.98 25.286-28.727 39.506-40.285 14.221-11.558 30.736-20.927 49.718-24.3-2.36-3.174-7.893-7.572-13.998-11.673-12.332-8.285-28.129-10.046-42.066-4.71-8.138 3.116-15.811 7.227-22.777 12.254-17.911 12.923-24.489 36.04-16.399 56.293Z"/></mask><g mask="url(#d)"><path fill="#ED9406" d="M162.834 133.944c-8.292-7.757-13.699-18.314-16.208-29.388-2.508-11.074-1.93-23.03.03-34.214 7.223-1.468 14.899-.612 21.621 2.411 6.721 3.024 12.519 8.599 16.211 14.978 10.767-10.986 24.29-19.249 38.978-23.817-12.319 17.634-25.533 35.234-39.145 51.891-5.846 7.153-11.761 14.374-19.083 20.007"/></g><mask id="e" width="100" height="86" x="154" y="36" maskUnits="userSpaceOnUse" style="mask-type:luminance"><path fill="#fff" d="M158.173 108.583c1.883 4.714 3.938 9.038 6.016 12.421 13.13-14.98 25.286-28.727 39.506-40.285 14.221-11.558 30.736-20.927 49.718-24.3-2.36-3.174-7.893-7.572-13.998-11.673-12.332-8.285-28.129-10.046-42.066-4.71-8.138 3.116-15.811 7.227-22.777 12.254-17.911 12.923-24.489 36.04-16.399 56.293Z"/></mask><g mask="url(#e)"><path fill="#FFED48" d="M168.701 55.575c7.243-4.067 14.885-7.545 22.971-9.449s16.659-2.185 24.656.065c7.996 2.251 15.37 7.163 19.821 14.177 9.427-3.19 18.82-4.68 28.758-4.126-10.463-15.834-29.628-25.255-48.599-24.71-18.971.544-37.242 10.716-48.41 26.061"/></g><path stroke="#1E2842" stroke-linecap="round" stroke-linejoin="round" stroke-miterlimit="10" stroke-width="2" d="M158.173 108.583c1.883 4.714 3.938 9.038 6.016 12.421 13.13-14.98 25.286-28.727 39.506-40.285 14.221-11.558 30.736-20.927 49.718-24.3-2.36-3.174-7.893-7.572-13.998-11.673-12.332-8.285-28.129-10.046-42.066-4.71-8.138 3.116-15.811 7.227-22.777 12.254-17.911 12.923-24.489 36.04-16.399 56.293Z"/><path fill="#F9D510" stroke="#1E2842" stroke-linecap="round" stroke-linejoin="round" stroke-miterlimit="10" stroke-width="2" d="M182.539 100.624c9.516-12.85 20.538-23.976 33.746-35.627 3.539-3.122 7.815-5.285 12.4-6.401 10.766-2.623 26.067-2.817 36.815-1.845 3.232.293 6.526.761 9.405 2.259 2.879 1.498 5.306 4.211 5.19 7.836-5.735-6.437-34.136-7.385-42.224-1.505-6.315 4.591-12.183 12.09-16.979 18.25-4.797 6.16-9.839 12.391-16.572 16.343-6.734 3.952-15.691 4.53-21.781.69Z"/><path fill="#375F99" stroke="#1E2842" stroke-linecap="round" stroke-linejoin="round" stroke-miterlimit="10" stroke-width="2" d="M202.106 106.938c7.627-1.922 15.932-1.451 23.926.937-4.286-5.133-11.193-8.237-17.854-7.605-2.155 1.455-3.925 3.409-6.072 6.668Z"/><path fill="#1E2842" d="M261.022 107.849c.992 4.615-1.09 8.977-4.65 9.742-3.56.765-7.251-2.355-8.243-6.971-.992-4.615 1.09-8.977 4.65-9.742 3.561-.765 7.251 2.356 8.243 6.971Z"/><path fill="#fff" d="M257.676 105.762c.329 1.529-.553 3.016-1.971 3.321-1.417.305-2.833-.688-3.161-2.218-.329-1.53.553-3.016 1.971-3.321 1.417-.305 2.832.688 3.161 2.218Z"/><path stroke="#1E2842" stroke-linecap="round" stroke-linejoin="round" stroke-miterlimit="10" stroke-width="2" d="M227.597 119.387c-6.569-3.156-14.758-1.621-20.025 3.754"/><path stroke="#EF6C65" stroke-linecap="round" stroke-linejoin="round" stroke-miterlimit="10" stroke-width="2" d="M244.787 102.928c-.514 4.789-.512 8.326 2.26 12.727 1.47.056 2.934.262 4.548.771 1.945.614 3.182 2.54 2.953 4.566a14.928 14.928 0 0 1-.751 3.279"/><path fill="#375F99" stroke="#1E2842" stroke-linecap="round" stroke-linejoin="round" stroke-miterlimit="10" stroke-width="2" d="M257.736 80.532c-6.106 1.943-10.936 7.205-12.031 13.709 4.318-5.399 11.249-8.821 18.34-9.054-1.142-2.337-3.47-4.109-6.309-4.655Z"/><path stroke="#EF6C65" stroke-linecap="round" stroke-linejoin="round" stroke-miterlimit="10" stroke-width="2" d="M243.505 149.802a12.075 12.075 0 0 1-6.128-.462"/><path fill="#fff" stroke="#1E2842" stroke-linecap="round" stroke-linejoin="round" stroke-miterlimit="10" stroke-width="2" d="M258.157 130.746c-9.627 1.475-19.513 1.243-29.244-.567-1.516 2.017-1.665 4.872-.686 7.198.978 2.326 2.961 4.136 5.221 5.259 2.259 1.123 4.786 1.611 7.301 1.817 4.316.354 8.874-.152 12.51-2.506 3.634-2.355 6.079-6.877 4.898-11.201Z"/><path fill="#1E2842" d="M229.209 130.74c.076 2.61 1.063 4.69 3.816 5.742-1.563.096-2.671 1.116-3.529 2.641 0 0-4.047-4.909-.287-8.383ZM257.972 131.086c-.679 2.495-1.662 4.622-3.996 5.113 1.138.388 1.892 1.15 1.605 2.925 0 0 3.436-3.227 2.391-8.038Z"/></svg>